<svg xmlns="http://www.w3.org/2000/svg" width="15.91" height="18" viewBox="0 0 15.91 18">
  <defs>
    <style>
      .cls-1 {
        fill: #1595f3;
        fill-rule: evenodd;
      }
    </style>
  </defs>
  <path id="Add_staff" class="cls-1" d="M1209.8,74.416h-1.67v2.569h-1.67V74.416h-2.49V72.7h2.49V70.135h1.67V72.7h2.5v1.712h-0.83Zm-6.67-5.137-1.38,0c-4.12.11-5.28,4.283-5.28,4.283a7.789,7.789,0,0,0-.1,2.569h-1.57a8.289,8.289,0,0,1,0-2.569,8.031,8.031,0,0,1,4.95-5.665,4.97,4.97,0,0,1-1.61-3.757,5,5,0,1,1,9.99,0,5.209,5.209,0,0,1-1.62,3.766,5.052,5.052,0,0,1-3.38,1.374h0Zm0-8.566a3.427,3.427,0,1,0,3.33,3.426,3.379,3.379,0,0,0-3.33-3.426h0Zm0,0" transform="translate(-1194.72 -59)"/>
</svg>
