<svg xmlns="http://www.w3.org/2000/svg" width="16" height="16" viewBox="0 0 16 16">
  <defs>
    <style>
      .cls-1 {
        fill: #1595f3;
        fill-rule: evenodd;
      }
    </style>
  </defs>
  <path id="Add_department" class="cls-1" d="M1282,69h-1V66h-5V65l0.81,0.029A0.957,0.957,0,0,0,1278,64V60c0-.778-0.41-0.995-1.19-1h-3.79a0.822,0.822,0,0,0-1.02,1v4a0.842,0.842,0,0,0,1.02,1.029L1274,65v1h-5v3h-1c-0.78,0-1,.6-1,1.381V74a0.812,0.812,0,0,0,1,1h4a0.812,0.812,0,0,0,1-1V70a0.812,0.812,0,0,0-1-1h-2V68h10v1h-2a0.812,0.812,0,0,0-1,1v4a0.812,0.812,0,0,0,1,1h4c0.78,0,1-.672,1-1.45V70.343C1283,68.819,1282,69,1282,69Zm-10,1c0.18,0,0-.176,0,0v4c0,0.176.18,0,0,0h-4c-0.18,0,0,.176,0,0V70a1.9,1.9,0,0,1,1,0h3Zm1.02-6.061c-0.18,0-.02.238-0.02,0.061V60c0-.176-0.18,0,0,0h4c0.18,0,0-.176,0,0v4c0,0.176-.01-0.062-0.19-0.061h-3.79ZM1282,74c0,0.176.18,0,0,0h-4c-0.18,0,0,.176,0,0V70c0-.176-0.18,0,0,0h4c0.18,0,0-.176,0,0v4Zm0,0" transform="translate(-1267 -59)"/>
</svg>
