<svg xmlns="http://www.w3.org/2000/svg" width="14.281" height="14.218" viewBox="0 0 14.281 14.218">
  <defs>
    <style>
      .cls-1 {
        fill: #1f8ae9;
        fill-rule: evenodd;
      }
    </style>
  </defs>
  <path id="weihu_icon" class="cls-1" d="M328.469,394.147l-0.73.731a2,2,0,0,1-2.825-2.825l0.731-.731c0.4-.4.134-0.879-0.593-0.766a3.655,3.655,0,0,0-3.011,4.372l-6.126,6.13a2,2,0,1,0,2.823,2.825l6.128-6.131a3.652,3.652,0,0,0,4.369-3.011c0.112-.727-0.363-1-0.766-0.594h0ZM317.8,402.941a0.666,0.666,0,1,1,0-.942,0.666,0.666,0,0,1,0,.942h0Zm-0.666-8.672,2.307,2.309,0.942-.942-2.307-2.309-0.517-.988-1.647-1.177-0.942.942,1.177,1.648Zm7.721,4.9a0.333,0.333,0,0,0-.471,0l-1.412,1.413a0.333,0.333,0,0,0,0,.471l3.331,3.333a1.332,1.332,0,0,0,1.883-1.884Zm0,0" transform="translate(-314.969 -390.563)"/>
</svg>
